<svg width="118" height="26" viewBox="0 0 118 26" fill="none" xmlns="http://www.w3.org/2000/svg">
<g clip-path="url(#clip0_148_32286)">
<mask id="mask0_148_32286" style="mask-type:luminance" maskUnits="userSpaceOnUse" x="0" y="2" width="118" height="25">
<path d="M117.39 2.60059H0.139465V26.0006H117.39V2.60059Z" fill="white"/>
</mask>
<g mask="url(#mask0_148_32286)">
<path d="M16.875 23.4964H4.46906C2.08223 23.4964 0.139465 21.5701 0.139465 19.1943V6.89346C0.139465 4.52689 2.08223 2.60059 4.46906 2.60059H16.875C19.2711 2.60059 21.2046 4.52689 21.2046 6.89346V19.1943C21.2139 21.5701 19.2711 23.4964 16.875 23.4964Z" fill="#F2F2F2"/>
<path d="M6.57692 19.4331V17.4058C6.57692 17.2407 6.44738 17.1123 6.28089 17.1123H4.23635C4.06982 17.1123 3.94031 17.2407 3.94031 17.4058V19.4331C3.94031 19.5982 4.06982 19.7266 4.23635 19.7266H6.28089C6.44738 19.7266 6.57692 19.5982 6.57692 19.4331Z" fill="#BDBDBD"/>
<path d="M17.4123 17.6899V7.70061C17.4123 6.95756 16.811 6.36133 16.0616 6.36133H5.98692C5.78339 6.36133 5.66314 6.43474 5.53363 6.56313L3.5261 8.57199C3.37808 8.71875 3.47984 8.93892 3.70188 8.93892H12.8144L7.16184 14.5435C7.06008 14.6444 7.01383 14.7453 7.01383 14.9105V16.3873C7.01383 16.5616 7.13412 16.6808 7.30986 16.6808H8.79934C8.97508 16.6808 9.07685 16.635 9.16935 16.5341L14.8219 10.9294V19.9647C14.8219 20.1849 15.0439 20.2858 15.192 20.139L17.218 18.1393C17.3382 18.0109 17.4123 17.8917 17.4123 17.6899Z" fill="#BDBDBD"/>
<path d="M47.9965 15.1124L52.1226 9.4619C52.2429 9.28759 52.1504 9.11328 51.9468 9.11328H49.6987C49.5785 9.11328 49.4212 9.1592 49.3472 9.28759L46.6273 13.2228L43.8427 9.28759C43.7687 9.16832 43.6207 9.11328 43.4912 9.11328H41.0951C40.9748 9.11328 40.8915 9.21418 40.8915 9.31509C40.8915 9.361 40.8915 9.41599 40.9378 9.4619L45.0731 15.1307L40.5123 21.3499C40.392 21.5242 40.4845 21.6985 40.6603 21.6985H42.9268C43.0471 21.6985 43.2044 21.6526 43.2784 21.5242L46.4331 17.0203L49.634 21.5242C49.708 21.6526 49.856 21.6985 49.9856 21.6985H52.4001C52.5204 21.6985 52.6037 21.5976 52.6037 21.4967C52.6037 21.4508 52.5759 21.3958 52.5574 21.3499L47.9965 15.1124Z" fill="#BDBDBD"/>
<path d="M38.7822 4.38965C38.958 4.38965 39.0782 4.5089 39.0782 4.68318V6.36184C39.0782 6.53609 38.958 6.65536 38.7822 6.65536H30.7243V11.6454H37.9589C38.1346 11.6454 38.2549 11.7646 38.2549 11.9389V13.6084C38.2549 13.7827 38.1346 13.9019 37.9589 13.9019H30.7243V19.369H38.7822C38.958 19.369 39.0782 19.4882 39.0782 19.6625V21.3961C39.0782 21.5705 38.958 21.6897 38.7822 21.6897H29.3551C28.6336 21.6897 28.0878 21.1485 28.0878 20.433V5.64634C28.0878 4.93085 28.6336 4.38965 29.3551 4.38965H38.7822Z" fill="#BDBDBD"/>
<path d="M61.0955 8.71875C58.6535 8.71875 57.358 9.78276 56.6087 10.7735V9.4067C56.6087 9.23239 56.4888 9.11318 56.313 9.11318H54.3423C54.1666 9.11318 54.0463 9.24157 54.0463 9.4067V25.6977C54.0463 25.872 54.1666 25.9913 54.3423 25.9913H56.3404C56.5161 25.9913 56.6366 25.872 56.6366 25.6977V20.0839C57.358 21.0746 58.6535 22.0653 61.0955 22.0653C65.0646 22.0653 67.3771 19.1024 67.3771 15.3874C67.3771 11.6724 65.0646 8.71875 61.0955 8.71875ZM60.6514 19.9371C58.2094 19.9371 56.5351 18.3044 56.5351 15.4149C56.5351 12.5255 58.2094 10.8376 60.6514 10.8376C63.094 10.8376 64.741 12.5163 64.741 15.4149C64.741 18.3044 63.094 19.9371 60.6514 19.9371Z" fill="#BDBDBD"/>
<path d="M75.241 8.71875C71.7719 8.71875 69.0057 11.1954 69.0057 15.2957C69.0057 19.4969 71.4478 22.0745 75.5646 22.0745C77.933 22.0745 79.9036 21.0379 81.1249 19.5978C81.1985 19.5244 81.2264 19.451 81.2264 19.3776C81.2264 19.3042 81.1985 19.2308 81.1249 19.1575L79.9778 18.0384C79.9036 17.965 79.8294 17.9375 79.7557 17.9375C79.6815 17.9375 79.6073 17.9833 79.5337 18.0567C78.5897 19.0749 77.3595 19.9371 75.5925 19.9371C73.011 19.9371 71.7719 18.3594 71.5772 16.0845H81.1522C81.328 16.0845 81.4485 15.9561 81.4485 15.791V15.2957C81.4485 11.5348 79.1543 8.71875 75.241 8.71875ZM71.6698 14.1582C71.9661 12.0943 73.0573 10.7459 75.2226 10.7459C77.4426 10.7459 78.6176 12.0026 78.7838 14.1582H71.6698Z" fill="#BDBDBD"/>
<path d="M117.103 9.11336H115.132C114.957 9.11336 114.836 9.23263 114.836 9.40689V10.792C114.087 9.80131 112.792 8.7373 110.294 8.7373C106.381 8.7373 104.059 11.7001 104.059 15.4152C104.059 19.1302 106.381 22.093 110.294 22.093C112.792 22.093 114.087 21.0289 114.836 20.0383V21.3959C114.836 21.5701 114.957 21.6894 115.132 21.6894H117.103C117.279 21.6894 117.399 21.5701 117.399 21.3959V9.40689C117.408 9.23263 117.279 9.11336 117.103 9.11336ZM110.793 19.9649C108.351 19.9649 106.704 18.2863 106.704 15.3876C106.704 12.4982 108.351 10.8654 110.793 10.8654C113.236 10.8654 114.91 12.4982 114.91 15.3876C114.91 18.2863 113.236 19.9649 110.793 19.9649Z" fill="#BDBDBD"/>
<path d="M96.1134 4.38965H94.1149C93.9392 4.38965 93.8192 4.5089 93.8192 4.68318V10.7923C93.0694 9.80164 91.8023 8.73757 89.3045 8.73757C85.3913 8.73757 83.0692 11.7004 83.0692 15.4154C83.0692 19.1304 85.3913 22.0933 89.3045 22.0933C91.8023 22.0933 93.0973 21.0293 93.8465 20.0386V21.3961C93.8465 21.5705 93.9671 21.6897 94.1428 21.6897H96.1134C96.2891 21.6897 96.4091 21.5705 96.4091 21.3961V4.68318C96.4091 4.5089 96.2891 4.38965 96.1134 4.38965ZM89.8039 19.9652C87.3618 19.9652 85.7149 18.2865 85.7149 15.3879C85.7149 12.4984 87.3618 10.8657 89.8039 10.8657C92.2464 10.8657 93.9207 12.4984 93.9207 15.3879C93.9207 18.2865 92.2464 19.9652 89.8039 19.9652Z" fill="#BDBDBD"/>
<path d="M101.544 4.38965C101.719 4.38965 101.839 4.5089 101.839 4.68318V6.7104C101.839 6.88466 101.719 7.00393 101.544 7.00393H99.4988C99.3231 7.00393 99.2031 6.88466 99.2031 6.7104V4.68318C99.2031 4.5089 99.3231 4.38965 99.4988 4.38965H101.544Z" fill="#BDBDBD"/>
<path d="M101.524 9.11328C101.699 9.11328 101.819 9.23255 101.819 9.40686V21.3958C101.819 21.57 101.699 21.6893 101.524 21.6893H99.525C99.3493 21.6893 99.2288 21.57 99.2288 21.3958V9.40686C99.2288 9.23255 99.3493 9.11328 99.525 9.11328H101.524Z" fill="#BDBDBD"/>
</g>
</g>
<defs>
<clipPath id="clip0_148_32286">
<rect width="118" height="26" fill="white"/>
</clipPath>
</defs>
</svg>
