<svg width="368" height="97" viewBox="0 0 368 97" fill="none" xmlns="http://www.w3.org/2000/svg">
<rect width="368" height="97" rx="10" fill="#F24E1E"/>
<g clip-path="url(#clip0_234_3614)">
<path d="M47.45 38.82C49.31 39.81 50.77 41.29 51.84 43.26C52.9 45.23 53.43 47.64 53.43 50.47V68.52H48.4V51.2C48.4 48.15 47.64 45.81 46.11 44.19C44.58 42.57 42.5 41.76 39.85 41.76C37.2 41.76 35.04 42.6 33.45 44.27C31.87 45.95 31.08 48.39 31.08 51.59V68.52H26V27.17H31.08V42.25C32.09 40.69 33.47 39.48 35.24 38.62C37.01 37.76 38.99 37.34 41.19 37.34C43.5 37.34 45.58 37.83 47.45 38.82Z" fill="white"/>
<path d="M59.3 44.85C60.57 42.49 62.31 40.65 64.52 39.35C66.74 38.05 69.2 37.39 71.92 37.39C74.64 37.39 76.93 37.97 78.9 39.12C80.87 40.28 82.34 41.73 83.31 43.48V37.89H88.45V68.5H83.31V62.8C82.3 64.59 80.8 66.07 78.81 67.24C76.82 68.41 74.5 69 71.85 69C69.2 69 66.67 68.33 64.48 66.99C62.28 65.65 60.55 63.77 59.28 61.35C58.01 58.93 57.38 56.17 57.38 53.08C57.38 49.99 58.01 47.21 59.28 44.84L59.3 44.85ZM81.93 47.11C81 45.4 79.74 44.08 78.16 43.17C76.58 42.26 74.84 41.8 72.94 41.8C71.04 41.8 69.31 42.25 67.74 43.14C66.18 44.03 64.93 45.34 64 47.05C63.07 48.76 62.6 50.77 62.6 53.08C62.6 55.39 63.07 57.47 64 59.2C64.93 60.93 66.18 62.25 67.74 63.17C69.3 64.08 71.04 64.54 72.94 64.54C74.84 64.54 76.58 64.08 78.16 63.17C79.74 62.26 81 60.94 81.93 59.2C82.86 57.47 83.33 55.45 83.33 53.14C83.33 50.83 82.86 48.82 81.93 47.11Z" fill="white"/>
<path d="M99.69 27.17V68.51H94.61V27.17H99.69Z" fill="white"/>
<path d="M105.89 44.85C107.16 42.49 108.9 40.65 111.11 39.35C113.33 38.05 115.79 37.39 118.51 37.39C121.23 37.39 123.52 37.97 125.49 39.12C127.46 40.28 128.93 41.73 129.9 43.48V37.89H135.04V68.5H129.9V62.8C128.89 64.59 127.39 66.07 125.4 67.24C123.41 68.41 121.09 69 118.44 69C115.79 69 113.26 68.33 111.07 66.99C108.87 65.65 107.14 63.77 105.87 61.35C104.6 58.93 103.97 56.17 103.97 53.08C103.97 49.99 104.6 47.21 105.87 44.84L105.89 44.85ZM128.52 47.11C127.59 45.4 126.33 44.08 124.75 43.17C123.17 42.26 121.43 41.8 119.53 41.8C117.63 41.8 115.9 42.25 114.33 43.14C112.77 44.03 111.52 45.34 110.59 47.05C109.66 48.76 109.19 50.77 109.19 53.08C109.19 55.39 109.66 57.47 110.59 59.2C111.52 60.93 112.77 62.25 114.33 63.17C115.89 64.08 117.63 64.54 119.53 64.54C121.43 64.54 123.17 64.08 124.75 63.17C126.33 62.26 127.59 60.94 128.52 59.2C129.45 57.47 129.92 55.45 129.92 53.14C129.92 50.83 129.45 48.82 128.52 47.11Z" fill="white"/>
<path d="M146.28 27.17V68.51H141.2V27.17H146.28Z" fill="white"/>
<path d="M195.53 56.97L195.59 57.24C196.9 56.93 198.21 56.63 199.51 56.32C199.12 56.41 196.51 56.74 195.53 56.97Z" fill="black"/>
<path d="M201.66 50.67C201.73 50.51 201.81 50.36 201.89 50.22L198.69 41.82C198.05 42.61 197.48 43.48 196.99 44.44C195.77 46.81 195.15 49.53 195.12 52.58C197.3 51.94 199.48 51.31 201.66 50.68V50.67Z" fill="black"/>
<path d="M236.19 43.52C237.37 42.99 238.55 42.47 239.73 41.95C239.96 41.85 240.21 41.76 240.45 41.67L240.69 41.58C240.91 41.5 241.14 41.46 241.36 41.46C241.38 41.46 241.4 41.46 241.42 41.46L240.08 37.39H231.7L234.27 44.36C234.91 44.08 235.55 43.8 236.19 43.51V43.52Z" fill="black"/>
<path d="M206.39 45.39C206.66 45.18 206.94 44.99 207.24 44.82C208.47 44.11 209.81 43.76 211.26 43.76C212.71 43.76 214.07 44.12 215.34 44.85C215.91 45.17 216.42 45.57 216.88 46.02C217.74 46.04 218.49 46.64 218.7 47.49L218.76 47.74C218.83 48.02 218.83 48.29 218.78 48.56C219.76 48.72 220.85 49.02 221.85 49.73L221.89 49.71C223.69 48.95 225.52 48.18 227.35 47.4V37.39H219.47V41.8C218.43 40.39 217.04 39.21 215.31 38.28C213.58 37.35 211.56 36.88 209.25 36.88C206.94 36.88 204.63 37.43 202.63 38.52C203.9 40.87 205.16 43.17 206.39 45.39Z" fill="black"/>
<path d="M161.99 29.74H154.11V37.39H150.42V43.81H154.11V58.73C154.11 65.14 157.41 68.34 164 68.34H168.92V61.75H165.29C164.1 61.75 163.25 61.52 162.75 61.05C162.25 60.58 162 59.83 162 58.79V43.82H168.93V37.4H162V29.74H161.99Z" fill="black"/>
<path d="M310.76 27H302.94V68.34H310.76V27Z" fill="black"/>
<path d="M340.84 54.57C339.78 53.32 338.52 52.4 337.07 51.8C335.62 51.2 333.77 50.63 331.54 50.07C329.34 49.51 327.72 48.96 326.68 48.42C325.64 47.88 325.12 47.09 325.12 46.05C325.12 45.12 325.5 44.39 326.27 43.87C327.03 43.35 328.12 43.09 329.54 43.09C331.07 43.09 332.29 43.45 333.2 44.18C334.11 44.91 334.62 45.88 334.74 47.11H342.23C342.01 43.98 340.8 41.5 338.6 39.65C336.4 37.81 333.46 36.88 329.77 36.88C327.27 36.88 325.11 37.29 323.26 38.11C321.42 38.93 320 40.05 319.01 41.46C318.02 42.88 317.53 44.44 317.53 46.15C317.53 48.24 318.06 49.89 319.12 51.12C320.18 52.35 321.45 53.26 322.92 53.86C324.39 54.46 326.28 55.03 328.59 55.59C330.82 56.19 332.45 56.74 333.48 57.24C334.5 57.74 335.02 58.5 335.02 59.5C335.02 60.43 334.6 61.2 333.76 61.79C332.92 62.39 331.76 62.68 330.27 62.68C328.78 62.68 327.47 62.29 326.44 61.51C325.42 60.73 324.83 59.74 324.68 58.55H316.8C316.91 60.45 317.55 62.18 318.73 63.75C319.9 65.31 321.5 66.55 323.51 67.47C325.52 68.38 327.79 68.84 330.33 68.84C332.87 68.84 334.94 68.44 336.78 67.64C338.62 66.84 340.04 65.73 341.03 64.32C342.02 62.91 342.51 61.3 342.51 59.52C342.47 57.47 341.92 55.82 340.86 54.58L340.84 54.57Z" fill="black"/>
<path d="M289.89 38.79C287.56 37.52 284.93 36.89 281.98 36.89C279.03 36.89 276.23 37.54 273.88 38.85C271.53 40.15 269.71 42.02 268.41 44.44C267.11 46.86 266.45 49.67 266.45 52.88C266.45 56.09 267.11 58.84 268.43 61.26C269.75 63.68 271.6 65.55 273.96 66.87C276.32 68.19 279 68.85 281.98 68.85C285.67 68.85 288.78 67.89 291.31 65.97C293.84 64.05 295.56 61.6 296.45 58.62H288.01C286.78 61.12 284.71 62.36 281.81 62.36C279.8 62.36 278.1 61.73 276.73 60.46C275.35 59.19 274.57 57.44 274.38 55.21H297.01C297.16 54.32 297.23 53.31 297.23 52.19C297.23 49.17 296.59 46.5 295.3 44.17C294.02 41.84 292.21 40.05 289.88 38.78L289.89 38.79ZM274.44 49.96C274.74 47.87 275.55 46.24 276.87 45.07C278.19 43.9 279.82 43.31 281.76 43.31C283.81 43.31 285.54 43.92 286.96 45.13C288.38 46.34 289.1 47.95 289.14 49.96H274.45H274.44Z" fill="black"/>
<path d="M247.91 61.13L242.63 45.09C242.53 45.17 242.42 45.23 242.31 45.29L235.8 48.49L243.11 68.33H252.61L264.06 37.38H255.74L247.92 61.12L247.91 61.13Z" fill="black"/>
<path d="M226.88 57.16C226.61 57.21 226.34 57.23 226.09 57.23C225.26 57.23 224.62 56.97 224.13 56.61C223.45 58.41 221.72 59.68 219.49 59.92C219 59.97 218.52 59.98 218.16 59.98H217.14H216.59C216.2 60.32 215.79 60.62 215.33 60.88C214.06 61.61 212.7 61.97 211.25 61.97C210.27 61.97 209.34 61.79 208.44 61.43C208.18 62.13 207.71 62.74 207.08 63.17C206.24 63.74 205.27 64.04 204.27 64.04C204.03 64.04 203.79 64.02 203.55 63.99C202.2 63.8 201.19 62.98 200.71 61.68C200.63 61.48 200.55 61.27 200.46 61.06C200.46 61.06 200.45 61.06 200.44 61.06C199.39 61.22 198.4 61.37 197.55 61.68C197.47 61.71 197.38 61.73 197.3 61.75C198.51 63.9 200.09 65.59 202.05 66.82C204.19 68.16 206.57 68.83 209.17 68.83C211.48 68.83 213.52 68.36 215.29 67.41C217.06 66.46 218.45 65.26 219.45 63.81V68.34H227.33V57.05C227.17 57.09 227.02 57.13 226.86 57.16H226.88Z" fill="black"/>
<path d="M180.3 64.92C179.5 65.07 178.71 65.23 177.91 65.38C177.79 65.4 177.67 65.41 177.55 65.41C176.73 65.41 175.98 64.88 175.72 64.08L175.67 63.91C175.35 62.9 175.9 61.82 176.91 61.5C177.01 61.47 177.11 61.43 177.21 61.4C177.49 61.3 177.82 61.18 178.19 61.1C179.59 60.79 180.99 60.49 182.39 60.19V52.93C182.39 50.06 183.01 48.05 184.26 46.9C185.51 45.75 187.36 45.17 189.82 45.17H191.89V36.96C189.8 36.96 187.95 37.43 186.33 38.36C184.71 39.29 183.4 40.58 182.39 42.21V37.41H174.57V68.36H182.39V64.54C181.69 64.67 180.99 64.8 180.31 64.94L180.3 64.92Z" fill="black"/>
<path d="M193.9 60.37C192.87 60.65 191.8 60.77 190.75 61ZM185.8 61.94C183.04 62.42 180.3 62.96 177.54 63.48C177.34 63.52 177.28 63.28 177.44 63.21C177.84 63.13 178.21 63.04 178.58 62.96C183.13 61.96 187.68 61.01 192.22 59.97C197.02 58.88 201.8 57.72 206.59 56.59C206.67 56.57 206.74 56.53 206.71 56.54C205.43 55.67 204.87 54.97 203.9 53.61C203.78 53.44 203.37 53.43 203.13 53.49C200.5 54.08 197.87 54.7 195.24 55.31C194.08 55.58 192.91 55.86 191.74 56.09C191.39 56.16 191 56.1 190.64 56.1C190.51 56.1 190.47 55.91 190.62 55.87C191.26 55.68 191.9 55.48 192.54 55.29C195.96 54.29 199.38 53.29 202.8 52.31C203.12 52.22 203.21 52.11 203.29 51.76C203.39 51.3 203.72 50.9 204.01 50.37C202.39 46.11 200.71 41.71 199.02 37.29C199.55 37.15 199.82 37.36 200.06 37.81C201.77 40.99 203.5 44.15 205.25 47.31C205.62 47.97 206.07 48.59 206.53 49.2C206.65 49.36 206.93 49.46 207.14 49.48C208.31 49.56 209.48 49.62 210.65 49.66C210.89 49.66 211.14 49.64 211.37 49.56C212.89 49.05 214.41 48.51 215.93 48.01C216.2 47.92 216.51 47.95 216.8 47.92C216.94 47.91 216.97 48.14 216.86 48.19C215.66 48.73 214.46 49.27 213.26 49.82V49.93C214.57 50.06 215.86 50.2 217.16 50.31C218.68 50.44 220.16 50.62 221.3 51.81C221.4 51.91 221.76 51.84 221.96 51.76C224.77 50.58 227.58 49.4 230.37 48.18C233.75 46.71 237.11 45.19 240.48 43.7C240.76 43.58 241.05 43.49 241.33 43.38C241.46 43.33 241.53 43.52 241.42 43.57C236.24 46.12 231.05 48.67 225.7 51.31C226.34 51.41 226.81 51.47 227.27 51.57C228.67 51.88 229.28 53.47 228.3 54.41C227.84 54.85 227.14 55.15 226.51 55.26C225.43 55.46 224.93 54.98 224.46 53.95C224.23 53.44 223.72 53.05 223.3 52.56C222.93 52.76 222.56 52.96 222.26 53.12C222.35 53.86 222.55 54.54 222.49 55.19C222.34 56.72 221.04 57.82 219.27 58.01C218.56 58.08 217.83 58.05 217.11 58.05C215.67 58.05 214.23 58.08 212.78 58.05C211.86 58.03 210.93 57.94 210.01 57.9C209.61 57.88 209.19 57.85 208.79 57.9C207.75 58.01 206.72 58.17 205.58 58.32C205.84 58.53 206.03 58.67 206.2 58.83C207 59.6 206.9 60.96 205.98 61.58C205.33 62.02 204.58 62.2 203.8 62.09C203.16 62 202.72 61.64 202.49 61.01C202.23 60.31 201.9 59.63 201.6 58.92M218.07 54.06C218.53 54.1 221.13 53.44 221.59 52.94C221.66 52.87 221.66 52.64 221.65 52.55C221.6 52.14 221.19 52.02 220.74 52.27C220.29 52.52 219.79 52.69 219.29 52.83C218.88 52.95 218.44 52.96 218.04 53.09C217.74 53.19 217.66 53.48 217.7 53.7C217.72 53.81 217.84 54.05 218.07 54.05V54.06Z" fill="white"/>
</g>
<defs>
<clipPath id="clip0_234_3614">
<rect width="316.49" height="42.01" fill="white" transform="translate(26 27)"/>
</clipPath>
</defs>
</svg>
