<?xml version="1.0" encoding="UTF-8"?>
<svg id="Layer_2" data-name="Layer 2" xmlns="http://www.w3.org/2000/svg" viewBox="0 0 316.49 42.01">
  <defs>
    <style>
      .cls-1 {
        fill: #fff;
      }
    </style>
  </defs>
  <g id="Layer_1-2" data-name="Layer 1">
    <g>
      <g>
        <path class="cls-1" d="m21.45,11.82c1.86.99,3.32,2.47,4.39,4.44,1.06,1.97,1.59,4.38,1.59,7.21v18.05h-5.03v-17.32c0-3.05-.76-5.39-2.29-7.01-1.53-1.62-3.61-2.43-6.26-2.43s-4.81.84-6.4,2.51c-1.58,1.68-2.37,4.12-2.37,7.32v16.93H0V.17h5.08v15.08c1.01-1.56,2.39-2.77,4.16-3.63,1.77-.86,3.75-1.28,5.95-1.28,2.31,0,4.39.49,6.26,1.48Z"/>
        <path class="cls-1" d="m33.3,17.85c1.27-2.36,3.01-4.2,5.22-5.5,2.22-1.3,4.68-1.96,7.4-1.96s5.01.58,6.98,1.73c1.97,1.16,3.44,2.61,4.41,4.36v-5.59h5.14v30.61h-5.14v-5.7c-1.01,1.79-2.51,3.27-4.5,4.44-1.99,1.17-4.31,1.76-6.96,1.76s-5.18-.67-7.37-2.01c-2.2-1.34-3.93-3.22-5.2-5.64-1.27-2.42-1.9-5.18-1.9-8.27s.63-5.87,1.9-8.24Zm22.63,2.26c-.93-1.71-2.19-3.03-3.77-3.94-1.58-.91-3.32-1.37-5.22-1.37s-3.63.45-5.2,1.34c-1.56.89-2.81,2.2-3.74,3.91-.93,1.71-1.4,3.72-1.4,6.03s.47,4.39,1.4,6.12c.93,1.73,2.18,3.05,3.74,3.97,1.56.91,3.3,1.37,5.2,1.37s3.64-.46,5.22-1.37c1.58-.91,2.84-2.23,3.77-3.97.93-1.73,1.4-3.75,1.4-6.06s-.47-4.32-1.4-6.03Z"/>
        <path class="cls-1" d="m73.69.17v41.34h-5.08V.17h5.08Z"/>
        <path class="cls-1" d="m79.89,17.85c1.27-2.36,3.01-4.2,5.22-5.5,2.22-1.3,4.68-1.96,7.4-1.96s5.01.58,6.98,1.73c1.97,1.16,3.44,2.61,4.41,4.36v-5.59h5.14v30.61h-5.14v-5.7c-1.01,1.79-2.51,3.27-4.5,4.44-1.99,1.17-4.31,1.76-6.96,1.76s-5.18-.67-7.37-2.01c-2.2-1.34-3.93-3.22-5.2-5.64-1.27-2.42-1.9-5.18-1.9-8.27s.63-5.87,1.9-8.24Zm22.63,2.26c-.93-1.71-2.19-3.03-3.77-3.94-1.58-.91-3.32-1.37-5.22-1.37s-3.63.45-5.2,1.34c-1.56.89-2.81,2.2-3.74,3.91-.93,1.71-1.4,3.72-1.4,6.03s.47,4.39,1.4,6.12c.93,1.73,2.18,3.05,3.74,3.97,1.56.91,3.3,1.37,5.2,1.37s3.64-.46,5.22-1.37c1.58-.91,2.84-2.23,3.77-3.97.93-1.73,1.4-3.75,1.4-6.06s-.47-4.32-1.4-6.03Z"/>
        <path class="cls-1" d="m120.28.17v41.34h-5.08V.17h5.08Z"/>
      </g>
      <g>
        <path d="m169.53,29.97s.06.27.06.27c1.31-.31,2.62-.61,3.92-.92-.39.09-3,.42-3.98.65Z"/>
        <path d="m175.66,23.67c.07-.16.15-.31.23-.45l-3.2-8.4c-.64.79-1.21,1.66-1.7,2.62-1.22,2.37-1.84,5.09-1.87,8.14,2.18-.64,4.36-1.27,6.54-1.9Z"/>
        <path d="m210.19,16.52c1.18-.53,2.36-1.05,3.54-1.57.23-.1.48-.19.72-.28l.24-.09c.22-.08.45-.12.67-.12.02,0,.04,0,.06,0l-1.34-4.07h-8.38l2.57,6.97c.64-.28,1.28-.56,1.92-.85Z"/>
        <path d="m180.39,18.39c.27-.21.55-.4.85-.57,1.23-.71,2.57-1.06,4.02-1.06s2.81.36,4.08,1.09c.57.32,1.08.72,1.54,1.17.86.02,1.61.62,1.82,1.47l.06.25c.07.28.07.55.02.82.98.16,2.07.46,3.07,1.17l.04-.02c1.8-.76,3.63-1.53,5.46-2.31v-10.01h-7.88v4.41c-1.04-1.41-2.43-2.59-4.16-3.52-1.73-.93-3.75-1.4-6.06-1.4s-4.62.55-6.62,1.64c1.27,2.35,2.53,4.65,3.76,6.87Z"/>
        <path d="m135.99,2.74h-7.88v7.65h-3.69v6.42h3.69v14.92c0,6.41,3.3,9.61,9.89,9.61h4.92v-6.59h-3.63c-1.19,0-2.04-.23-2.54-.7-.5-.47-.75-1.22-.75-2.26v-14.97h6.93v-6.42h-6.93V2.74Z"/>
        <rect x="276.94" width="7.82" height="41.34"/>
        <path d="m314.84,27.57c-1.06-1.25-2.32-2.17-3.77-2.77-1.45-.6-3.3-1.17-5.53-1.73-2.2-.56-3.82-1.11-4.86-1.65-1.04-.54-1.56-1.33-1.56-2.37,0-.93.38-1.66,1.15-2.18.76-.52,1.85-.78,3.27-.78,1.53,0,2.75.36,3.66,1.09.91.73,1.42,1.7,1.54,2.93h7.49c-.22-3.13-1.43-5.61-3.63-7.46-2.2-1.84-5.14-2.77-8.83-2.77-2.5,0-4.66.41-6.51,1.23-1.84.82-3.26,1.94-4.25,3.35-.99,1.42-1.48,2.98-1.48,4.69,0,2.09.53,3.74,1.59,4.97,1.06,1.23,2.33,2.14,3.8,2.74,1.47.6,3.36,1.17,5.67,1.73,2.23.6,3.86,1.15,4.89,1.65,1.02.5,1.54,1.26,1.54,2.26,0,.93-.42,1.7-1.26,2.29-.84.6-2,.89-3.49.89s-2.8-.39-3.83-1.17c-1.02-.78-1.61-1.77-1.76-2.96h-7.88c.11,1.9.75,3.63,1.93,5.2,1.17,1.56,2.77,2.8,4.78,3.72,2.01.91,4.28,1.37,6.82,1.37s4.61-.4,6.45-1.2,3.26-1.91,4.25-3.32c.99-1.41,1.48-3.02,1.48-4.8-.04-2.05-.59-3.7-1.65-4.94Z"/>
        <path d="m263.89,11.79c-2.33-1.27-4.96-1.9-7.91-1.9s-5.75.65-8.1,1.96c-2.35,1.3-4.17,3.17-5.47,5.59-1.3,2.42-1.96,5.23-1.96,8.44s.66,5.96,1.98,8.38c1.32,2.42,3.17,4.29,5.53,5.61,2.36,1.32,5.04,1.98,8.02,1.98,3.69,0,6.8-.96,9.33-2.88,2.53-1.92,4.25-4.37,5.14-7.35h-8.44c-1.23,2.5-3.3,3.74-6.2,3.74-2.01,0-3.71-.63-5.08-1.9-1.38-1.27-2.16-3.02-2.35-5.25h22.63c.15-.89.22-1.9.22-3.02,0-3.02-.64-5.69-1.93-8.02-1.28-2.33-3.09-4.12-5.42-5.39Zm-15.45,11.17c.3-2.09,1.11-3.72,2.43-4.89,1.32-1.17,2.95-1.76,4.89-1.76,2.05,0,3.78.61,5.2,1.82,1.42,1.21,2.14,2.82,2.18,4.83h-14.69Z"/>
        <path d="m221.91,34.13l-5.28-16.04c-.1.08-.21.14-.32.2l-6.51,3.2,7.31,19.84h9.5l11.45-30.95h-8.32l-7.82,23.74Z"/>
        <path d="m200.88,30.16c-.27.05-.54.07-.79.07-.83,0-1.47-.26-1.96-.62-.68,1.8-2.41,3.07-4.64,3.31-.49.05-.97.06-1.33.06h-1.02s-.55,0-.55,0c-.39.34-.8.64-1.26.9-1.27.73-2.63,1.09-4.08,1.09-.98,0-1.91-.18-2.81-.54-.26.7-.73,1.31-1.36,1.74-.84.57-1.81.87-2.81.87-.24,0-.48-.02-.72-.05-1.35-.19-2.36-1.01-2.84-2.31-.08-.2-.16-.41-.25-.62,0,0-.01,0-.02,0-1.05.16-2.04.31-2.89.62-.08.03-.17.05-.25.07,1.21,2.15,2.79,3.84,4.75,5.07,2.14,1.34,4.52,2.01,7.12,2.01,2.31,0,4.35-.47,6.12-1.42,1.77-.95,3.16-2.15,4.16-3.6v4.53h7.88v-11.29c-.16.04-.31.08-.47.11Z"/>
        <path d="m154.3,37.92c-.8.15-1.59.31-2.39.46-.12.02-.24.03-.36.03-.82,0-1.57-.53-1.83-1.33l-.05-.17c-.32-1.01.23-2.09,1.24-2.41.1-.03.2-.07.3-.1.28-.1.61-.22.98-.3,1.4-.31,2.8-.61,4.2-.91v-7.26c0-2.87.62-4.88,1.87-6.03,1.25-1.15,3.1-1.73,5.56-1.73h2.07v-8.21c-2.09,0-3.94.47-5.56,1.4-1.62.93-2.93,2.22-3.94,3.85v-4.8h-7.82v30.95h7.82v-3.82c-.7.13-1.4.26-2.08.4Z"/>
      </g>
      <path class="cls-1" d="m167.9,33.37c-1.03.28-2.1.4-3.15.63m-4.95.94c-2.76.48-5.5,1.02-8.26,1.54-.2.04-.26-.2-.1-.27.4-.08.77-.17,1.14-.25,4.55-1,9.1-1.95,13.64-2.99,4.8-1.09,9.58-2.25,14.37-3.38.08-.02.15-.06.12-.05-1.28-.87-1.84-1.57-2.81-2.93-.12-.17-.53-.18-.77-.12-2.63.59-5.26,1.21-7.89,1.82-1.16.27-2.33.55-3.5.78-.35.07-.74.01-1.1.01-.13,0-.17-.19-.02-.23.64-.19,1.28-.39,1.92-.58,3.42-1,6.84-2,10.26-2.98.32-.09.41-.2.49-.55.1-.46.43-.86.72-1.39-1.62-4.26-3.3-8.66-4.99-13.08.53-.14.8.07,1.04.52,1.71,3.18,3.44,6.34,5.19,9.5.37.66.82,1.28,1.28,1.89.12.16.4.26.61.28,1.17.08,2.34.14,3.51.18.24,0,.49-.02.72-.1,1.52-.51,3.04-1.05,4.56-1.55.27-.09.58-.06.87-.09.14-.01.17.22.06.27-1.2.54-2.4,1.08-3.6,1.63v.11c1.31.13,2.6.27,3.9.38,1.52.13,3,.31,4.14,1.5.1.1.46.03.66-.05,2.81-1.18,5.62-2.36,8.41-3.58,3.38-1.47,6.74-2.99,10.11-4.48.28-.12.57-.21.85-.32.13-.05.2.14.09.19-5.18,2.55-10.37,5.1-15.72,7.74.64.1,1.11.16,1.57.26,1.4.31,2.01,1.9,1.03,2.84-.46.44-1.16.74-1.79.85-1.08.2-1.58-.28-2.05-1.31-.23-.51-.74-.9-1.16-1.39-.37.2-.74.4-1.04.56.09.74.29,1.42.23,2.07-.15,1.53-1.45,2.63-3.22,2.82-.71.07-1.44.04-2.16.04-1.44,0-2.88.03-4.33,0-.92-.02-1.85-.11-2.77-.15-.4-.02-.82-.05-1.22,0-1.04.11-2.07.27-3.21.42.26.21.45.35.62.51.8.77.7,2.13-.22,2.75-.65.44-1.4.62-2.18.51-.64-.09-1.08-.45-1.31-1.08-.26-.7-.59-1.38-.89-2.09m16.47-4.86c.46.04,3.06-.62,3.52-1.12.07-.07.07-.3.06-.39-.05-.41-.46-.53-.91-.28-.45.25-.95.42-1.45.56-.41.12-.85.13-1.25.26-.3.1-.38.39-.34.61.02.11.14.35.37.35Z"/>
    </g>
  </g>
</svg>