<svg width="82" height="26" viewBox="0 0 82 26" fill="none" xmlns="http://www.w3.org/2000/svg">
<g clip-path="url(#clip0_148_32302)">
<path d="M18.2744 13.8484L19.6423 13.1368V2.27158H18.6027L16.0585 5.66526H15.7849L15.9217 1.88842H27.0013L27.1654 5.66526H26.8645L24.3476 2.27158H23.2807V13.1095L24.6486 13.8484V14.2042H18.3018L18.2744 13.8484ZM28.3965 13.3558V1.34105L27.3569 0.930526V0.684211L31.2416 0H31.6519V5.69263L31.734 5.58316C32.6641 4.78947 33.8405 4.35158 35.0715 4.35158C36.7677 4.35158 37.5337 5.30947 37.5337 7.08842V13.3832L38.4364 13.8484V14.2042H33.3754V13.8484L34.3056 13.3558V7.08842C34.3056 6.10316 33.8678 5.72 33.0471 5.72C32.5547 5.72 32.0896 5.85684 31.7066 6.15789V13.3832L32.6094 13.8758V14.2042H27.5484V13.8758L28.3965 13.3558ZM41.6372 9.68842C41.7466 11.6589 42.6221 13.1916 44.7559 13.1916C45.7681 13.1916 46.4794 12.7263 47.1633 12.3705V12.7811C46.2332 13.8758 44.8653 14.5053 43.4428 14.4779C40.1599 14.4779 38.5185 12.6716 38.5185 9.52421C38.5185 6.43158 40.3241 4.51579 43.2786 4.51579C46.069 4.51579 47.5189 5.88421 47.5189 9.55158V9.66105L41.6372 9.68842ZM41.5825 9.22316L44.455 9.03158C44.455 6.56842 44.0446 4.92632 43.1965 4.92632C42.2938 4.92632 41.5825 6.8421 41.5825 9.19579M0 19.0211C0 13.7937 3.47433 11.9053 7.33165 11.9053C8.97306 11.9053 10.505 12.1789 11.3805 12.5347L11.4625 16.2021H11.0795L8.80892 12.6442C8.34385 12.48 7.87879 12.3979 7.38636 12.4253C5.3346 12.4253 4.29503 14.8063 4.32239 18.6926C4.34975 23.3453 5.1431 25.4526 7.05808 25.4526C7.44108 25.4526 7.82407 25.3979 8.17971 25.2611V20.28L6.94865 19.5684V19.1305H12.9672V19.5958L11.7361 20.28V25.2063C10.2588 25.7263 8.72685 25.9726 7.16751 25.9726C2.7904 25.9726 0 23.92 0 19.0211ZM12.8851 16.5579V16.2842L16.9613 15.5726L17.399 15.6V23.5368C17.399 24.5221 17.8641 24.7958 18.63 24.7958C19.1498 24.7958 19.6149 24.5768 19.9432 24.1937V17.0779L18.8489 16.5853V16.2568L22.8704 15.5726L23.2534 15.6274V24.7411L24.3476 25.1789V25.48L20.3535 25.9726L19.9705 25.9453V24.7411H19.8611C19.0404 25.5074 17.9461 25.9726 16.8245 25.9726C14.8822 25.9726 13.952 24.8232 13.952 23.0989V17.0779L12.8851 16.5579ZM38.7374 15.5453L39.0657 15.5726V18.5284H39.1751C39.6128 16.3663 40.5429 15.5726 41.7193 15.5726C41.8834 15.5726 42.0476 15.6 42.2117 15.6547V18.6653C41.9381 18.6105 41.6646 18.5832 41.391 18.5832C40.625 18.5558 39.8864 18.72 39.2024 19.0211V24.8232L40.1326 25.3432V25.6989H34.8527V25.3432L35.8102 24.8232V16.8863L34.7159 16.5579V16.2842L38.7374 15.5453ZM48.8868 15.7916V12.6989L47.7925 12.2884V12.0421L51.896 11.3032L52.2517 11.3579V24.7137L53.4007 25.1242V25.4253L49.3518 25.9726L49.0509 25.9453V24.8505H48.9415C48.2576 25.5895 47.2727 26 46.2605 25.9726C44.072 25.9726 42.4579 24.3032 42.4579 20.8547C42.4579 17.2421 44.3455 15.4632 47.1633 15.4632C47.7651 15.4358 48.3396 15.5453 48.8868 15.7916ZM48.8868 24.3305V16.3937C48.5859 16.1474 48.2029 16.0105 47.7925 16.0379C46.6982 16.0653 46.0143 17.7347 46.0143 20.6632C46.0143 23.2905 46.5067 24.7684 47.9293 24.7137C48.2849 24.7137 48.6132 24.6042 48.8868 24.3305ZM57.8598 15.5726H58.2155V24.8779L59.1456 25.3705V25.6989H53.8931V25.3432L54.8232 24.8232V17.0505L53.729 16.5853V16.2842L57.8598 15.5726ZM58.2428 13.0547C58.2155 14.0126 57.4221 14.8063 56.4646 14.7789H56.4373C55.4798 14.7789 54.7138 14.0126 54.7138 13.0547C54.7138 12.0968 55.4798 11.3305 56.4373 11.3305C57.4221 11.3032 58.2155 12.0695 58.2428 13.0547ZM70.9091 24.8505V16.9411L69.8148 16.5579V16.1747L73.8363 15.4084L74.2466 15.4632V16.64H74.3561C75.3135 15.8189 76.5173 15.3537 77.7757 15.3537C79.5265 15.3537 80.3199 16.1747 80.3199 18.0358V24.8232L81.25 25.3432V25.6989H75.9975V25.3432L76.955 24.8232V18.2547C76.955 17.2147 76.5173 16.8042 75.6692 16.8042C75.1768 16.8042 74.6843 16.9684 74.3013 17.2695V24.8232L75.2041 25.3432V25.6989H69.979V25.3432L70.9091 24.8505ZM65.0821 19.9242V18.5832C65.0821 16.5853 64.6717 15.9558 63.4407 15.9558C63.3039 15.9558 63.1397 15.9558 63.0029 15.9558L60.8144 18.9663H60.5135V16.2295C61.6898 15.8189 62.9482 15.6 64.2066 15.5726C66.8876 15.5726 68.447 16.3116 68.447 18.5832V25.0147L69.4045 25.2884V25.5347C68.8026 25.8358 68.1187 26 67.4348 25.9726C66.0943 25.9726 65.4651 25.5347 65.1641 24.8232H65.0821C64.5349 25.5895 63.7142 26 62.4558 26C60.8691 26 59.7748 25.0147 59.7748 23.2905C59.7748 21.6484 60.8144 20.7179 62.9209 20.3347L65.0821 19.9242ZM65.0821 24.3579V20.3621L64.4255 20.4168C63.3586 20.4989 63.0029 21.1558 63.0029 22.6611C63.0029 24.2758 63.5227 24.6863 64.2614 24.6863C64.5896 24.7137 64.8906 24.5768 65.0821 24.3579ZM30.0105 19.8695V18.5832C30.0105 16.5853 29.5728 15.9284 28.3417 15.9284C28.205 15.9284 28.0682 15.9558 27.9314 15.9832L25.7155 18.9116H25.4419V16.1747C26.6183 15.7642 27.8493 15.5726 29.1077 15.5453C31.7887 15.5453 33.3481 16.2842 33.3481 18.5558V24.9874L34.3056 25.2611V25.5074C33.7037 25.8084 33.0198 25.9726 32.3359 25.9453C30.9954 25.9453 30.3662 25.5074 30.0652 24.7958H29.9832C29.436 25.5621 28.6153 25.9726 27.3843 25.9726C25.7702 25.9726 24.7033 24.9874 24.7033 23.2632C24.7033 21.6211 25.7155 20.6905 27.822 20.3074L30.0105 19.8695ZM30.0105 24.3305V20.3621L29.3266 20.4168C28.287 20.4989 27.904 21.1558 27.904 22.6611C27.904 24.2758 28.4512 24.6863 29.1625 24.6863C29.4907 24.7137 29.7917 24.5768 30.0105 24.3305Z" fill="#E0E0E0"/>
</g>
<defs>
<clipPath id="clip0_148_32302">
<rect width="81.25" height="26" fill="white"/>
</clipPath>
</defs>
</svg>
